{"title":"Bonnie and Clyde - [crime] - (1967) - DvdRip x264 AAC  [=Faith=]","uid":12030719,"size":2470719331,"categoryP":"video","categoryS":"movies","magnet":"?xt=urn:btih:59dab8d6151818bba28d24e30f503d478cfc8e6c&amp;dn=Bonnie+and+Clyde+-+%5Bcrime%5D+-+%281967%29+-+DvdRip+x264+AAC++%5B%3DFaith%3D%5D&amp;tr=udp%3A%2F%2Ftracker.openbittorrent.com%3A80&amp;tr=udp%3A%2F%2Fopen.demonii.com%3A1337&amp;tr=udp%3A%2F%2Ftracker.coppersurfer.tk%3A6969&amp;tr=udp%3A%2F%2Fexodus.desync.com%3A6969","seeders":0,"leechers":1,"uploader":"Faithwyn","files":7,"time":1434608916,"description":" Bonnie and Clyde (1967)\n\nA somewhat romanticized account of the career of the \nnotoriously violent bank robbing couple and their gang.\n\n\nThe Film:\n\nDirected by: Arthur Penn\nProduced by: Warren Beatty\nWritten by: David Newman\nRobert Benton\nSpecial Consultant:Robert Towne\nStarring: Warren Beatty, Faye Dunaway, Michael J. Pollard,\n          Gene Hackman, Estelle Parsons, Gene Wilder\nMusic by: Charles Strouse\nCinematography: Burnett Guffey\nEdited by: Dede Allen\nDistributed by: Warner Bros.- Seven Arts\nRelease dates: August 13, 1967\nRunning time: 111 minutes\nCountry: United States\nLanguage: English\nSubtitles: English, French, Korean\nIMDB Rating: 7.9\n\n\nGeneral:\n\nComplete name : Bonnie and Clyde.m4v\nFormat : MPEG-4\nFormat profile : Base Media / Version 2\nCodec ID : mp42\nFile size : 2.30 GiB\nDuration : 1h 50mn\nOverall bit rate mode : Variable\nOverall bit rate : 2 975 Kbps\nEncoded date : UTC 2015-06-17 21:30:48\nTagged date : UTC 2015-06-17 22:17:57\nWriting application : HandBrake 0.9.9\n\n\nVideo:\n\nID : 1\nFormat : AVC\nFormat/Info : Advanced Video Codec\nFormat profile : &lt;a class=&quot;__cf_email__&quot; href=&quot;/cdn-cgi/l/email-protection&quot; data-cfemail=&quot;dd95b4bab59d91e9f3ec&quot;&gt;[email&amp;#160;protected]&lt;/a&gt;&lt;script data-cfhash='f9e31' type=&quot;text/javascript&quot;&gt;\n/* &lt;![CDATA[ */!function(){try{var t=&quot;currentScript&quot;in document?document.currentScript:function(){for(var t=document.getElementsByTagName(&quot;script&quot;),e=t.length;e--;)if(t[e].getAttribute(&quot;data-cfhash&quot;))return t[e]}();if(t&amp;&amp;t.previousSibling){var e,r,n,i,c=t.previousSibling,a=c.getAttribute(&quot;data-cfemail&quot;);if(a){for(e=&quot;&quot;,r=parseInt(a.substr(0,2),16),n=2;a.length-n;n+=2)i=parseInt(a.substr(n,2),16)^r,e+=String.fromCharCode(i);e=document.createTextNode(e),c.parentNode.replaceChild(e,c)}t.parentNode.removeChild(t);}}catch(u){}}()/* ]]&gt; */&lt;/script&gt;\nFormat settings, CABAC : Yes\nFormat settings, ReFrames : 5 frames\nCodec ID : avc1\nCodec ID/Info : Advanced Video Coding\nDuration : 1h 50mn\nBit rate : 2 771 Kbps\nWidth : 720 pixels\nHeight : 480 pixels\nDisplay aspect ratio : 16:9\nOriginal display aspect ratio : 16:9\nFrame rate mode : Variable\nFrame rate : 23.976 fps\nMinimum frame rate : 7.948 fps\nMaximum frame rate : 29.970 fps\nStandard : NTSC\nColor space : YUV\nChroma subsampling : 4:2:0\nBit depth : 8 bits\nScan type : Progressive\nBits/(Pixel*Frame) : 0.334\nStream size : 2.14 GiB (93%)\nWriting library : x264 core 130 r2273 b3065e6\nEncoding settings : (see .nfo file for details)\nEncoded date : UTC 2015-06-17 21:30:48\nTagged date : UTC 2015-06-17 22:17:57\nColor primaries : BT.601 NTSC\nTransfer characteristics : BT.709\nMatrix coefficients : BT.601\n\n\nAudio:\n\nID : 2\nFormat : AC-3\nFormat/Info : Audio Coding 3\nMode extension : CM (complete main)\nFormat settings, Endianness : Big\nCodec ID : ac-3\nDuration : 1h 50mn\nBit rate mode : Constant\nBit rate : 192 Kbps\nChannel(s) : 1 channel\nChannel positions : Front: C\nSampling rate : 48.0 KHz\nBit depth : 16 bits\nCompression mode : Lossy\nStream size : 152 MiB (6%)\nLanguage : English","torrent":{"xt":"urn:btih:59dab8d6151818bba28d24e30f503d478cfc8e6c","amp;dn":"Bonnie+and+Clyde+-+%5Bcrime%5D+-+%281967%29+-+DvdRip+x264+AAC++%5B%3DFaith%3D%5D","amp;tr":["udp%3A%2F%2Ftracker.openbittorrent.com%3A80","udp%3A%2F%2Fopen.demonii.com%3A1337","udp%3A%2F%2Ftracker.coppersurfer.tk%3A6969","udp%3A%2F%2Fexodus.desync.com%3A6969"],"infoHash":"59dab8d6151818bba28d24e30f503d478cfc8e6c","infoHashBuffer":{"type":"Buffer","data":[89,218,184,214,21,24,24,187,162,141,36,227,15,80,61,71,140,252,142,108]},"announce":[],"urlList":[]}}